<svg width="60" height="59" viewBox="0 0 60 59" fill="none" xmlns="http://www.w3.org/2000/svg">
<path d="M22.0919 47.1843C19.5601 44.866 18.8215 39.9997 19.8761 36.4723C21.7034 38.6953 24.2374 39.4017 26.861 39.7982C30.9106 40.4113 34.8876 40.1817 38.6491 38.3292C39.0803 38.1168 39.4773 37.833 39.947 37.5492C40.3014 38.574 40.3931 39.6075 40.2693 40.6627C39.9705 43.2302 38.6939 45.2127 36.6659 46.7163C35.8547 47.3165 34.9965 47.8538 34.1575 48.4215C31.5852 50.1635 30.8892 52.2067 31.8563 55.1793L31.9502 55.5C30.7194 54.9637 29.6738 54.0676 28.9466 52.926C28.1891 51.7586 27.7853 50.3914 27.7853 48.9935C27.7768 48.3002 27.7768 47.6025 27.6828 46.9178C27.4566 45.2517 26.6752 44.5063 25.2044 44.463C23.6951 44.4197 22.4997 45.3535 22.1837 46.8247C22.1581 46.9395 22.124 47.05 22.0877 47.1822L22.0919 47.1843ZM9.3667 37.5535C9.3667 37.5535 16.2833 34.141 23.2212 34.141L28.4535 17.7502C28.6499 16.9572 29.222 16.4198 29.8667 16.4198C30.5114 16.4198 31.0835 16.9572 31.2799 17.7502L36.51 34.141C44.7288 34.141 50.3667 37.5535 50.3667 37.5535L38.5936 5.07517C38.2563 4.1175 37.6863 3.5 36.9178 3.5H22.8156C22.0471 3.5 21.5027 4.1175 21.142 5.07517L9.3667 37.5535Z" fill="#F6F6F6"/>
</svg>
