<svg width="53" height="53" viewBox="0 0 53 53" fill="none" xmlns="http://www.w3.org/2000/svg">
<g clip-path="url(#clip0_106_68)">
<path d="M3.74133 0.5L7.91433 47.3L26.6408 52.5L45.4161 47.2935L49.5956 0.5H3.74133ZM41.8378 44.3165L26.7448 48.4992V48.522L26.7058 48.509L26.6668 48.522V48.4992L11.5738 44.3165L8.00533 4.3285H45.4063L41.8378 44.3165ZM33.7128 27.423L33.0498 34.8655L26.6408 36.5945L20.2481 34.872L19.8386 30.2895H14.0763L14.8791 39.305L26.6636 42.5648L38.4123 39.305L39.9886 21.6835H19.0683L18.5451 15.8043H40.5086L41.0221 10.0648H12.2693L13.8196 27.423H33.7128Z" fill="#F6F6F6"/>
</g>
<defs>
<clipPath id="clip0_106_68">
<rect width="52" height="52" fill="white" transform="translate(0.66687 0.5)"/>
</clipPath>
</defs>
</svg>
