<svg width="50" height="51" viewBox="0 0 50 51" fill="none" xmlns="http://www.w3.org/2000/svg">
<path d="M17.7086 4.66669C16.051 4.66669 14.4613 5.32517 13.2892 6.49727C12.1171 7.66937 11.4586 9.25908 11.4586 10.9167C11.4586 12.5743 12.1171 14.164 13.2892 15.3361C14.4613 16.5082 16.051 17.1667 17.7086 17.1667H32.292C33.9496 17.1667 35.5393 16.5082 36.7114 15.3361C37.8835 14.164 38.542 12.5743 38.542 10.9167C38.542 9.25908 37.8835 7.66937 36.7114 6.49727C35.5393 5.32517 33.9496 4.66669 32.292 4.66669H17.7086ZM32.292 19.25C30.6344 19.25 29.0446 19.9085 27.8725 21.0806C26.7004 22.2527 26.042 23.8424 26.042 25.5C26.042 27.1576 26.7004 28.7473 27.8725 29.9194C29.0446 31.0915 30.6344 31.75 32.292 31.75C33.9496 31.75 35.5393 31.0915 36.7114 29.9194C37.8835 28.7473 38.542 27.1576 38.542 25.5C38.542 23.8424 37.8835 22.2527 36.7114 21.0806C35.5393 19.9085 33.9496 19.25 32.292 19.25ZM11.4586 25.5C11.4586 23.8424 12.1171 22.2527 13.2892 21.0806C14.4613 19.9085 16.051 19.25 17.7086 19.25H23.9586V31.75H17.7086C16.051 31.75 14.4613 31.0915 13.2892 29.9194C12.1171 28.7473 11.4586 27.1576 11.4586 25.5ZM17.7086 33.8334C16.4725 33.8334 15.2641 34.1999 14.2363 34.8867C13.2085 35.5734 12.4074 36.5495 11.9344 37.6916C11.4613 38.8336 11.3376 40.0903 11.5787 41.3027C11.8199 42.5151 12.4151 43.6287 13.2892 44.5028C14.1633 45.3769 15.2769 45.9721 16.4893 46.2133C17.7017 46.4544 18.9584 46.3307 20.1004 45.8576C21.2424 45.3846 22.2185 44.5835 22.9053 43.5557C23.5921 42.5279 23.9586 41.3195 23.9586 40.0834V33.8334H17.7086Z" fill="#F6F6F6"/>
</svg>
