<svg width="58" height="57" viewBox="0 0 58 57" fill="none" xmlns="http://www.w3.org/2000/svg">
<g clip-path="url(#clip0_106_66)">
<path d="M56.2575 25.9599L31.3698 1.07586C31.0291 0.73494 30.6245 0.464493 30.1792 0.279976C29.7339 0.0954596 29.2566 0.000488281 28.7746 0.000488281C28.2925 0.000488281 27.8152 0.0954596 27.3699 0.279976C26.9246 0.464493 26.52 0.73494 26.1793 1.07586L21.0137 6.24149L27.5687 12.7965C28.3417 12.5325 29.1734 12.4912 29.9689 12.6773C30.7643 12.8634 31.4914 13.2693 32.0671 13.8488C32.6429 14.4283 33.0442 15.158 33.2251 15.9546C33.4061 16.7512 33.3594 17.5826 33.0905 18.354L39.4068 24.6739C40.3413 24.3448 41.36 24.3438 42.2951 24.671C43.2303 24.9982 44.0261 25.6341 44.5516 26.474C45.0771 27.3139 45.3009 28.3077 45.1862 29.2917C45.0715 30.2758 44.6251 31.1914 43.9205 31.8879C43.2068 32.6032 42.2671 33.0489 41.2615 33.149C40.256 33.2491 39.2469 32.9975 38.4061 32.437C37.5653 31.8764 36.9449 31.0417 36.6506 30.075C36.3562 29.1084 36.4062 28.0695 36.792 27.1356L30.896 21.2432V36.7507C31.3164 36.9526 31.7012 37.2269 32.0503 37.5737C32.7136 38.2365 33.1459 39.0952 33.2834 40.0227C33.4209 40.9503 33.2563 41.8975 32.8138 42.7242C32.3713 43.5509 31.6745 44.2133 30.8264 44.6134C29.9783 45.0134 29.024 45.1299 28.1046 44.9456C27.1852 44.7613 26.3495 44.286 25.7211 43.59C25.0928 42.894 24.7051 42.0142 24.6154 41.0808C24.5257 40.1474 24.7389 39.21 25.2232 38.4071C25.7076 37.6042 26.4375 36.9784 27.305 36.6225V20.9724C26.7717 20.7539 26.2869 20.4319 25.8785 20.0251C25.4702 19.6183 25.1464 19.1347 24.9259 18.6022C24.7053 18.0697 24.5923 17.4988 24.5935 16.9224C24.5946 16.346 24.7098 15.7756 24.9324 15.2439L18.4772 8.78155L1.41278 25.8459C1.07185 26.1867 0.801407 26.5913 0.61689 27.0366C0.432374 27.4819 0.337402 27.9592 0.337402 28.4412C0.337402 28.9232 0.432374 29.4005 0.61689 29.8458C0.801407 30.2911 1.07185 30.6957 1.41278 31.0365L26.3004 55.9241C26.6412 56.265 27.0457 56.5355 27.4911 56.72C27.9364 56.9045 28.4137 56.9995 28.8957 56.9995C29.3777 56.9995 29.855 56.9045 30.3003 56.72C30.7456 56.5355 31.1502 56.265 31.491 55.9241L56.261 31.1541C56.6025 30.8132 56.8734 30.4084 57.0582 29.9628C57.2431 29.5171 57.3382 29.0394 57.3382 28.557C57.3382 28.0745 57.2431 27.5968 57.0582 27.1512C56.8734 26.7056 56.6025 26.3008 56.261 25.9599" fill="#F6F6F6"/>
</g>
<defs>
<clipPath id="clip0_106_66">
<rect width="57" height="57" fill="white" transform="translate(0.333496)"/>
</clipPath>
</defs>
</svg>
