<svg width="53" height="53" viewBox="0 0 53 53" fill="none" xmlns="http://www.w3.org/2000/svg">
<path d="M4.87231 2.66669H48.4635L46.0845 44.284L26.6711 51.564L7.25348 44.284L4.87231 2.66669ZM9.46348 7.00002L11.4178 41.216L26.6711 46.936L41.9201 41.216L43.8723 7.00002H9.46348ZM12.5466 11.3334H40.3818L40.1478 15.4219L24.3528 22.9835H39.7145L38.8391 38.3322L26.6668 42.8974L14.4945 38.3322L14.2475 34.0119V34.0032L14.085 30.9915H18.44L18.5743 33.7735L18.661 35.2685L26.6668 38.2672L34.6748 35.2642L35.1298 27.3125H13.8618L13.6321 23.3085L29.6026 15.6667H26.6668L13.1143 15.6927L12.5466 11.3334Z" fill="#F6F6F6"/>
</svg>
