<svg width="59" height="59" viewBox="0 0 59 59" fill="none" xmlns="http://www.w3.org/2000/svg">
<path d="M31.6806 3.34826C31.0196 2.95962 30.2668 2.7547 29.5 2.7547C28.7333 2.7547 27.9805 2.95962 27.3195 3.34826L8.26742 14.5533C7.62126 14.9333 7.08559 15.4754 6.71346 16.1261C6.34134 16.7768 6.14568 17.5134 6.14587 18.263V40.737C6.14587 42.2612 6.95221 43.6723 8.26742 44.4442L14.7156 48.2374C17.9926 50.1697 22.125 47.8048 22.125 44.0042V19.0447H17.2084V44.0017L11.0625 40.3855V18.6145L29.5 7.76834L47.9375 18.6145V40.3855L29.5 51.2317L25.1537 48.675L22.661 52.9107L27.3195 55.6518C27.9805 56.0404 28.7333 56.2453 29.5 56.2453C30.2668 56.2453 31.0196 56.0404 31.6806 55.6518L50.7327 44.4442C51.3785 44.0645 51.9139 43.5227 52.286 42.8725C52.6581 42.2223 52.854 41.4862 52.8542 40.737V18.263C52.854 17.5138 52.6581 16.7777 52.286 16.1275C51.9139 15.4773 51.3785 14.9355 50.7327 14.5558L31.6806 3.34826ZM34.4167 18.4375C31.066 18.4375 28.6912 19.3004 27.1646 20.8221C26.0118 21.9687 25.3603 23.5253 25.3528 25.1512C25.3528 26.5156 25.7388 27.7521 26.5377 28.7748C27.3072 29.7581 28.32 30.3703 29.2911 30.766C31.0611 31.4962 33.2736 31.7346 35.0534 31.9239L35.2673 31.9485C37.3102 32.1698 38.8417 32.359 39.889 32.7966C40.3634 32.9933 40.5576 33.1752 40.6387 33.2809C40.6904 33.3498 40.7912 33.5022 40.7912 33.9201C40.7912 34.5691 40.5699 34.987 39.8742 35.3828C39.0212 35.8671 37.5142 36.2358 35.2452 36.2358C32.9958 36.2358 31.4274 35.8179 30.5301 35.1984C29.8344 34.7166 29.3206 33.9766 29.4558 32.3713L24.5563 31.9608C24.2908 35.1296 25.4389 37.6543 27.7325 39.2424C29.8245 40.6928 32.5754 41.1525 35.2452 41.1525C37.8928 41.1525 40.388 40.7469 42.308 39.6529C44.3877 38.4729 45.7078 36.5013 45.7078 33.9201C45.7078 32.5508 45.3268 31.3118 44.5352 30.2818C43.7731 29.2886 42.7603 28.6691 41.7868 28.261C39.9971 27.5112 37.7551 27.2703 35.9655 27.0785L35.7934 27.0589C33.7456 26.8376 32.214 26.6533 31.1594 26.2206C30.6825 26.0239 30.4883 25.8469 30.4145 25.7486C30.3654 25.6896 30.2695 25.5519 30.2695 25.1512C30.2695 24.9619 30.326 24.6128 30.6382 24.3031C30.9382 24.0032 31.865 23.3542 34.4167 23.3542C36.8505 23.3542 38.2689 23.6123 39.0802 24.0917C39.6087 24.4063 40.1815 24.984 40.2602 26.877L45.1719 26.6803C45.049 23.6172 43.928 21.2523 41.5877 19.8658C39.53 18.6416 36.8996 18.4375 34.4167 18.4375Z" fill="#F6F6F6"/>
</svg>
