<svg width="58" height="57" viewBox="0 0 58 57" fill="none" xmlns="http://www.w3.org/2000/svg">
<g clip-path="url(#clip0_106_55)">
<path d="M32.3102 47.0962H53.4999C54.1721 47.0962 54.8347 46.9229 55.4166 46.5975C55.9954 46.2734 56.4793 45.8034 56.8202 45.2342C57.1556 44.6719 57.3329 44.0294 57.3332 43.3746C57.3317 42.7204 57.1537 42.0788 56.8178 41.5174L42.5892 17.6082C42.248 17.04 41.7641 16.5708 41.1856 16.2474C40.5999 15.9198 39.94 15.748 39.2689 15.7486C38.5968 15.7486 37.9342 15.922 37.3523 16.2474C36.7746 16.5712 36.2916 17.0403 35.9511 17.6082L32.3078 23.7262L25.1994 11.7634C24.8583 11.1951 24.3744 10.7259 23.7958 10.4025C23.2102 10.0749 22.5502 9.90316 21.8792 9.90375C21.2047 9.90375 20.5444 10.0771 19.9626 10.4025C19.384 10.7259 18.9001 11.1951 18.5589 11.7634L0.846186 41.5174C0.510344 42.0788 0.332288 42.7204 0.330811 43.3746C0.330811 44.0278 0.506561 44.669 0.843811 45.2342C1.18401 45.8031 1.66708 46.2731 2.24506 46.5975C2.82931 46.9229 3.49194 47.0962 4.16406 47.0962H17.4641C22.7366 47.0962 26.6221 44.8495 29.2963 40.47L35.7872 29.5616L39.2642 23.7262L49.7023 41.2585H35.7872L32.3102 47.0962ZM17.2503 41.2538L7.96881 41.249L21.8816 17.8742L28.8237 29.5616L24.1758 37.3754C22.3993 40.2159 20.3829 41.2514 17.2503 41.2514" fill="#F6F6F6"/>
</g>
<defs>
<clipPath id="clip0_106_55">
<rect width="57" height="57" fill="white" transform="translate(0.333252)"/>
</clipPath>
</defs>
</svg>
