<svg width="58" height="59" viewBox="0 0 58 59" fill="none" xmlns="http://www.w3.org/2000/svg">
<g clip-path="url(#clip0_106_64)">
<path d="M29.0026 12.1C21.2692 12.1 16.4359 15.9666 14.5026 23.7C17.4026 19.8333 20.7859 18.3833 24.6526 19.35C26.859 19.901 28.4346 21.5008 30.1819 23.2746C33.0263 26.1601 36.3154 29.5 43.5026 29.5C51.2359 29.5 56.0692 25.6333 58.0026 17.9C55.1026 21.7666 51.7192 23.2166 47.8526 22.25C45.6462 21.699 44.0705 20.0991 42.3232 18.3253C39.4812 15.4398 36.1921 12.1 29.0026 12.1ZM14.5026 29.5C6.76923 29.5 1.9359 33.3666 0.00256348 41.1C2.90256 37.2333 6.2859 35.7833 10.1526 36.75C12.359 37.301 13.9346 38.9008 15.6819 40.6746C18.5263 43.5601 21.8154 46.9 29.0026 46.9C36.7359 46.9 41.5692 43.0333 43.5026 35.3C40.6026 39.1666 37.2192 40.6166 33.3526 39.65C31.1461 39.099 29.5705 37.4991 27.8232 35.7253C24.9812 32.8398 21.6921 29.5 14.5026 29.5Z" fill="#F6F6F6"/>
</g>
<defs>
<clipPath id="clip0_106_64">
<rect width="58" height="58" fill="white" transform="translate(0.00012207 0.5)"/>
</clipPath>
</defs>
</svg>
