<svg width="57" height="57" viewBox="0 0 57 57" fill="none" xmlns="http://www.w3.org/2000/svg">
<path d="M45.4361 7.125H11.5638C9.2957 7.125 7.45508 8.99412 7.45508 11.3002V45.6998C7.45508 48.0035 9.2957 49.875 11.5638 49.875H45.4361C47.7066 49.875 49.5448 48.0059 49.5448 45.6998V11.3002C49.5448 8.9965 47.7066 7.125 45.4361 7.125ZM31.8701 30.837H26.6095V46.1177H22.4176V30.837H17.1546V27.4146H31.8701V30.837ZM45.4361 43.3699C45.106 44.1227 44.5407 44.6809 43.8733 45.125C43.1656 45.5626 42.3867 45.8729 41.572 46.0417C40.6528 46.2352 39.7158 46.3307 38.7766 46.3268C37.8118 46.3297 36.8489 46.2423 35.9005 46.0655C35.0722 45.9197 34.2692 45.6558 33.516 45.2817V41.2704L33.3592 41.1445L33.516 41.1089V41.2704C34.2142 41.8356 34.9837 42.2671 35.8245 42.5648C36.6486 42.8806 37.5511 43.0397 38.456 43.0397C39.0307 43.0397 39.4677 42.9899 39.8548 42.8973C40.2026 42.818 40.5354 42.6833 40.8405 42.4982C41.0833 42.3511 41.2845 42.1443 41.4247 41.8974C41.5699 41.6228 41.6353 41.3131 41.6134 41.0033C41.5916 40.6936 41.4834 40.3961 41.3012 40.1446C41.0792 39.8306 40.8005 39.5607 40.4795 39.349C40.0921 39.0749 39.6784 38.8402 39.2445 38.6484C38.7528 38.4228 38.2517 38.1876 37.6841 37.9549C36.2852 37.2875 35.1832 36.6201 34.4778 35.6986C33.763 34.8674 33.4091 33.7796 33.4091 32.528C33.4091 31.5258 33.5991 30.723 33.9838 30.0224C34.3947 29.2719 34.8792 28.7209 35.5466 28.2696C36.2045 27.8112 36.9431 27.4764 37.848 27.2674C38.7505 27.0584 39.6577 26.9515 40.6433 26.9515C41.629 26.9515 42.4531 27.0085 43.1917 27.1249C43.9303 27.2436 44.6215 27.4265 45.2461 27.6687V31.5923C44.9385 31.3668 44.6082 31.1742 44.2605 31.0175C43.525 30.6984 42.7502 30.4788 41.9567 30.3644C41.6029 30.3115 41.2457 30.2853 40.888 30.286C40.4464 30.2801 40.0056 30.3255 39.5746 30.4214C39.2257 30.491 38.8914 30.6203 38.5866 30.8038C38.3382 30.9521 38.127 31.1552 37.9691 31.3975C37.8221 31.6297 37.7454 31.8994 37.7482 32.1741C37.7482 32.4813 37.8305 32.7592 37.9952 33.0077C38.1583 33.2484 38.3918 33.4827 38.6958 33.7108C38.9666 33.9269 39.3371 34.1454 39.7646 34.3615C40.2562 34.5776 40.7003 34.7961 41.2442 35.0218C41.9828 35.3376 42.6407 35.6891 43.2155 36.024C43.7926 36.3565 44.2771 36.7484 44.6951 37.1925C45.1392 37.6081 45.4598 38.1116 45.6831 38.6959C45.9063 39.2801 46.0203 39.938 46.0203 40.698C46.0203 41.7834 45.7638 42.6194 45.4361 43.3699Z" fill="#F6F6F6"/>
</svg>
