<svg width="18" height="18" viewBox="0 0 18 18" fill="none" xmlns="http://www.w3.org/2000/svg">
<rect x="0.5" y="0.5" width="17" height="17" rx="2.5" fill="white"/>
<rect x="0.5" y="0.5" width="17" height="17" rx="2.5" stroke="black"/>
<path d="M12.773 6.69427L12.0075 5.87656L11.2865 6.54896L10.807 6.99687L12.745 9.07344L11.532 10.3734L10.8065 11.1505C11.0815 11.4104 11.352 11.6661 11.6265 11.9245L12.0085 12.2859L13.1135 11.1L15 9.07292L12.773 6.69427ZM4.496 7.475L3 9.07292C4.005 10.1526 4.9965 11.2161 5.992 12.2849L6.247 12.0432L7.1935 11.15L6.47 10.375L5.255 9.07292L6.8095 7.40833L7.193 6.9974C6.976 6.79427 6.763 6.59531 6.549 6.39635L5.992 5.875L4.496 7.475ZM10.7885 4.33021L8.816 14L8.718 13.9797L7.2035 13.6698L8.481 7.40937L9.1765 4L10.7885 4.33021Z" fill="black"/>
</svg>
